<svg width="232" height="77" viewBox="0 0 232 77" fill="none" xmlns="http://www.w3.org/2000/svg">
<path d="M222.474 6.27014L213.785 22.9443V31.1911H207.649V22.9443L198.96 6.27014H205.887L210.748 16.684L215.608 6.27014H222.474Z" fill="white"/>
<path d="M109.16 20.5967C110.071 21.7404 110.496 23.0045 110.496 24.4492C110.496 26.5561 109.767 28.1813 108.309 29.4455C106.851 30.6494 104.785 31.3115 102.112 31.3115H90.3247V6.27014H101.686C104.238 6.27014 106.243 6.8721 107.702 8.01581C109.16 9.15953 109.889 10.7848 109.889 12.7713C109.889 14.2762 109.524 15.4801 108.734 16.4432C107.945 17.4063 106.912 18.0685 105.636 18.4899C107.094 18.7908 108.248 19.5132 109.16 20.5967ZM96.4613 16.383H100.471C101.504 16.383 102.233 16.1422 102.78 15.7209C103.327 15.2995 103.57 14.6373 103.57 13.7946C103.57 12.9519 103.327 12.2897 102.78 11.8081C102.233 11.3266 101.443 11.146 100.471 11.146H96.4613V16.383ZM103.388 25.7133C103.935 25.2318 104.238 24.5696 104.238 23.7269C104.238 22.8239 103.935 22.1618 103.327 21.6802C102.719 21.1987 101.93 20.9579 100.897 20.9579H96.4005V26.4959H100.957C102.051 26.3755 102.841 26.1347 103.388 25.7133Z" fill="white"/>
<path d="M120.218 6.27014V31.3115H114.081V6.27014H120.218Z" fill="white"/>
<path d="M140.389 17.4665L137.959 21.9812H141.908C141.422 23.4259 140.693 24.5094 139.6 25.2919C138.567 26.0745 137.291 26.4357 135.772 26.4357C133.585 26.4357 131.823 25.7735 130.547 24.5094C129.271 23.1851 128.663 21.4394 128.663 19.0918C128.663 16.9248 129.271 15.1791 130.486 13.915C131.64 12.7111 133.099 12.0489 134.921 11.9887L140.572 12.0489L143.002 6.33032H136.44H134.982C132.612 6.39052 130.486 6.87208 128.663 7.9556C126.719 9.03913 125.2 10.544 124.106 12.4703C123.013 14.3965 122.466 16.6238 122.466 19.0918C122.466 21.5598 123.013 23.7871 124.106 25.7133C125.2 27.6396 126.719 29.1445 128.663 30.228C130.607 31.3115 132.855 31.8533 135.347 31.8533C137.473 31.8533 139.357 31.4319 141.058 30.6494C142.759 29.8668 144.096 28.7833 145.189 27.459C146.283 26.1347 147.073 24.7502 147.498 23.1851V17.4665H140.389Z" fill="white"/>
<path d="M169.797 20.5365C170.708 21.6802 171.133 22.9443 171.133 24.389C171.133 26.4959 170.404 28.1212 168.946 29.3251C167.488 30.529 165.422 31.1309 162.809 31.1309H151.083V6.27014H162.384C164.936 6.27014 166.941 6.8721 168.399 8.01582C169.857 9.15953 170.586 10.7246 170.586 12.7111C170.586 14.1558 170.222 15.4199 169.432 16.383C168.642 17.3461 167.609 18.0083 166.333 18.4297C167.731 18.6704 168.885 19.3928 169.797 20.5365ZM157.159 16.3228H161.169C162.202 16.3228 162.931 16.082 163.478 15.6607C164.024 15.2393 164.268 14.5771 164.268 13.7344C164.268 12.8917 164.024 12.2295 163.478 11.8081C162.931 11.3868 162.141 11.146 161.169 11.146H157.159V16.3228ZM164.085 25.5929C164.632 25.1114 164.936 24.4492 164.936 23.6065C164.936 22.7036 164.632 22.0414 164.085 21.5598C163.478 21.0783 162.688 20.8375 161.655 20.8375H157.22V26.3153H161.716C162.688 26.2551 163.478 26.0143 164.085 25.5929Z" fill="white"/>
<path d="M180.551 30.1076C178.606 29.0241 177.027 27.5192 175.872 25.5327C174.718 23.6065 174.11 21.3792 174.11 18.9714C174.11 16.5636 174.718 14.3364 175.872 12.4101C177.027 10.4838 178.606 8.97895 180.551 7.89542C182.495 6.8119 184.682 6.27014 187.052 6.27014C189.421 6.27014 191.609 6.8119 193.553 7.89542C195.497 8.97895 197.077 10.4838 198.231 12.4101C199.386 14.3364 199.933 16.5636 199.933 18.9714C199.933 21.3792 199.386 23.6065 198.231 25.5327C197.077 27.459 195.558 29.0241 193.553 30.1076C191.609 31.1911 189.421 31.7329 187.052 31.7329C184.682 31.7329 182.495 31.1911 180.551 30.1076ZM191.852 24.2686C193.067 22.9443 193.675 21.1987 193.675 19.0316C193.675 16.8044 193.067 15.0587 191.852 13.7344C190.637 12.4101 189.057 11.7479 187.052 11.7479C185.047 11.7479 183.406 12.4101 182.191 13.6742C180.976 14.9985 180.368 16.7442 180.368 18.9714C180.368 21.1987 180.976 22.9443 182.191 24.2686C183.406 25.5929 184.986 26.2551 187.052 26.2551C189.057 26.2551 190.637 25.5929 191.852 24.2686Z" fill="white"/>
<path d="M213.846 54.7276V37.1505H208.317V54.7276V60.386H213.846H221.866V54.7276H213.846Z" fill="white"/>
<path d="M148.835 37.933V46.4206H140.936V37.933H135.407V46.4206V51.8984V60.386H140.936V51.8984H148.835V60.386H154.364V37.933H148.835Z" fill="white"/>
<path d="M163.113 58.8811C161.351 57.8578 159.954 56.4733 158.921 54.7276C157.888 52.9217 157.341 50.9353 157.341 48.7081C157.341 46.4808 157.888 44.4944 158.921 42.6885C159.954 40.9428 161.351 39.5583 163.113 38.535C164.875 37.5117 166.819 37.0301 168.946 37.0301C171.072 37.0301 173.017 37.5117 174.779 38.535C176.541 39.5583 177.938 40.8826 178.971 42.6885C180.004 44.4342 180.49 46.4808 180.49 48.7081C180.49 50.9353 180.004 52.9217 178.971 54.7276C177.938 56.5335 176.541 57.918 174.779 58.8811C173.017 59.9044 171.072 60.386 168.946 60.386C166.819 60.386 164.875 59.8443 163.113 58.8811ZM173.26 53.5237C174.353 52.3198 174.9 50.6945 174.9 48.7081C174.9 46.7216 174.353 45.0963 173.26 43.8924C172.166 42.6885 170.769 42.0865 168.946 42.0865C167.123 42.0865 165.665 42.6885 164.571 43.8924C163.478 45.0963 162.931 46.6614 162.931 48.7081C162.931 50.6945 163.478 52.3198 164.571 53.5237C165.665 54.7276 167.123 55.3296 168.946 55.3296C170.708 55.3296 172.166 54.7276 173.26 53.5237Z" fill="white"/>
<path d="M188.753 58.8811C186.991 57.8578 185.594 56.4733 184.561 54.7276C183.528 52.9217 182.981 50.9353 182.981 48.7081C182.981 46.4808 183.528 44.4944 184.561 42.6885C185.594 40.9428 186.991 39.5583 188.753 38.535C190.515 37.5117 192.459 37.0301 194.586 37.0301C196.712 37.0301 198.657 37.5117 200.419 38.535C202.181 39.5583 203.578 40.8826 204.611 42.6885C205.644 44.4342 206.13 46.4808 206.13 48.7081C206.13 50.9353 205.644 52.9217 204.611 54.7276C203.578 56.5335 202.181 57.918 200.419 58.8811C198.657 59.9044 196.712 60.386 194.586 60.386C192.459 60.386 190.515 59.8443 188.753 58.8811ZM198.9 53.5237C199.993 52.3198 200.54 50.6945 200.54 48.7081C200.54 46.7216 199.993 45.0963 198.9 43.8924C197.806 42.6885 196.409 42.0865 194.586 42.0865C192.763 42.0865 191.305 42.6885 190.211 43.8924C189.118 45.0963 188.571 46.6614 188.571 48.7081C188.571 50.6945 189.118 52.3198 190.211 53.5237C191.305 54.7276 192.763 55.3296 194.586 55.3296C196.348 55.3296 197.806 54.7276 198.9 53.5237Z" fill="white"/>
<path d="M113.352 53.2228C113.352 51.2363 112.623 49.6712 111.286 48.4673C109.889 47.3236 107.945 46.7216 105.453 46.7216H100.654L98.7701 46.7818C97.7979 46.7818 97.0081 46.5411 96.522 46.1197C96.0967 45.7585 95.7322 45.2769 95.7322 44.675C95.7322 44.073 96.036 43.5915 96.522 43.2303C97.0689 42.8089 97.7979 42.5681 98.7701 42.5681L111.894 42.5079V37.8127L97.7372 37.8729C95.2461 37.8729 93.3018 38.4748 91.9044 39.6186C90.507 40.7623 89.8386 42.3875 89.8386 44.374C89.8386 44.4944 89.8386 44.9158 89.8386 44.976C89.8386 46.9624 90.5677 48.5275 91.9044 49.7314C93.3018 50.8751 95.2461 51.4771 97.7372 51.4771L101.747 51.4169H104.421C105.393 51.4169 106.183 51.6577 106.669 52.0791C107.094 52.4402 107.459 52.9218 107.459 53.5237C107.459 54.1257 107.155 54.6073 106.669 54.9684C106.122 55.3898 105.393 55.6306 104.421 55.6306L91.2968 55.6908V60.3861L105.453 60.3259C107.945 60.3259 109.889 59.7239 111.286 58.5802C112.684 57.4365 113.352 55.8112 113.352 53.8247C113.352 53.7645 113.352 53.3432 113.352 53.2228Z" fill="white"/>
<path d="M126.84 55.5102C124.957 55.5102 123.438 54.9082 122.344 53.8247C121.251 52.681 120.704 51.1159 120.704 49.0692C120.704 47.143 121.251 45.6381 122.284 44.4944C123.134 43.5914 124.167 43.1099 125.382 42.8691H130.304L132.126 37.8126L127.266 37.7524H126.233C124.167 37.8126 122.284 38.234 120.643 39.1369C118.942 40.1001 117.605 41.4244 116.633 43.1099C115.661 44.7953 115.175 46.7818 115.175 48.9488C115.175 51.1159 115.661 53.0421 116.633 54.7878C117.605 56.4733 118.942 57.7976 120.643 58.7607C122.344 59.7239 124.349 60.2054 126.537 60.2054C126.597 60.2054 126.658 60.2054 126.719 60.2054H132.248V55.45H126.84V55.5102Z" fill="white"/>
<path d="M91.4183 69.2949C91.7829 68.7532 92.2689 68.3318 92.8765 68.0308C93.4233 67.7298 94.0309 67.5493 94.6993 67.5493C95.4284 67.5493 96.0359 67.7298 96.522 68.091C97.0081 68.4522 97.3119 68.994 97.3726 69.7163H95.8537C95.7321 69.4153 95.6106 69.1745 95.3676 69.0541C95.1246 68.8736 94.8208 68.8134 94.4562 68.8134C94.0917 68.8134 93.7271 68.9338 93.3626 69.1143C92.998 69.2949 92.755 69.5357 92.512 69.8969C92.2689 70.2581 92.1474 70.6192 92.0259 71.1008C91.9651 71.2814 91.9651 71.462 91.9651 71.6426C91.9651 72.1843 92.1474 72.6057 92.4512 72.9067C92.755 73.2076 93.1803 73.3882 93.7271 73.3882C94.2132 73.3882 94.6385 73.2678 95.0638 72.9669C95.4283 72.6659 95.7321 72.3047 95.9144 71.7629H93.6056L93.7879 70.7396H97.3726L97.1903 71.9435C97.0081 72.4251 96.765 72.8465 96.4005 73.2678C96.0359 73.6892 95.6106 73.9902 95.1246 74.231C94.6385 74.4718 94.0917 74.5921 93.5448 74.5921C92.998 74.5921 92.512 74.4718 92.0259 74.231C91.6006 73.9902 91.236 73.6892 91.0538 73.2076C90.8715 72.7261 90.6892 72.3047 90.6892 71.7028C90.6892 71.462 90.6892 71.2212 90.75 70.9804C90.75 70.4386 90.993 69.8367 91.4183 69.2949Z" fill="white"/>
<path d="M98.4054 70.3183C98.7092 69.8969 99.013 69.5357 99.4383 69.3551C99.8636 69.1143 100.289 68.994 100.714 68.994C101.079 68.994 101.443 69.0542 101.686 69.2347C101.929 69.4153 102.172 69.5959 102.294 69.8367L102.415 69.0542H103.752L102.841 74.532H101.504L101.626 73.7494C101.443 73.9902 101.14 74.231 100.836 74.4116C100.532 74.5922 100.167 74.6523 99.7421 74.6523C99.3776 74.6523 99.013 74.532 98.7092 74.3514C98.4054 74.1708 98.1624 73.93 98.0409 73.5688C97.9194 73.2076 97.7979 72.8465 97.7979 72.4251C97.7979 72.2445 97.7979 72.0037 97.8586 71.763C97.9194 71.2814 98.1016 70.7998 98.4054 70.3183ZM101.99 71.462C101.99 71.1008 101.869 70.7396 101.686 70.559C101.443 70.3183 101.2 70.2581 100.836 70.2581C100.593 70.2581 100.35 70.3183 100.107 70.4387C99.8636 70.559 99.6814 70.7396 99.4991 70.9804C99.3168 71.2212 99.1953 71.5222 99.1345 71.8232C99.1345 71.9435 99.1345 72.0639 99.1345 72.1843C99.1345 72.6057 99.2561 72.9067 99.4383 73.1475C99.6206 73.3882 99.9244 73.5086 100.228 73.5086C100.471 73.5086 100.714 73.4484 100.957 73.328C101.2 73.2077 101.383 73.0271 101.565 72.7863C101.747 72.5455 101.869 72.2445 101.929 71.9435C101.99 71.6426 101.99 71.5222 101.99 71.462Z" fill="white"/>
<path d="M112.988 69.4755C113.291 69.7765 113.474 70.1979 113.474 70.7998C113.474 71.0406 113.474 71.2212 113.413 71.3416L112.866 74.5922H111.529L112.015 71.5824C112.015 71.462 112.015 71.3416 112.015 71.2212C112.015 70.9202 111.955 70.6795 111.772 70.4989C111.59 70.3183 111.347 70.2581 111.043 70.2581C110.679 70.2581 110.375 70.3785 110.132 70.6193C109.889 70.86 109.707 71.161 109.646 71.5824L109.099 74.6524H107.762L108.248 71.6426C108.248 71.5222 108.248 71.4018 108.248 71.2814C108.248 70.9804 108.188 70.7396 108.005 70.5591C107.823 70.3785 107.58 70.3183 107.276 70.3183C106.912 70.3183 106.608 70.4387 106.365 70.6193C106.122 70.7998 105.94 71.161 105.879 71.5222L105.332 74.6524H103.995L104.907 69.1746H106.243L106.122 69.8367C106.304 69.5959 106.608 69.4153 106.851 69.295C107.155 69.1746 107.459 69.1144 107.762 69.1144C108.188 69.1144 108.552 69.2348 108.795 69.4153C109.099 69.5959 109.281 69.8367 109.403 70.1979C109.646 69.8969 109.889 69.5959 110.253 69.4153C110.618 69.2348 110.983 69.1144 111.347 69.1144C112.198 68.994 112.623 69.1746 112.988 69.4755Z" fill="white"/>
<path d="M118.942 69.5959C119.306 69.9571 119.549 70.4988 119.549 71.161C119.549 71.4018 119.549 71.5824 119.489 71.7028C119.428 71.8833 119.428 72.0639 119.367 72.2445H115.539C115.539 72.3047 115.539 72.3649 115.539 72.4251C115.539 72.7863 115.661 73.0271 115.843 73.2076C116.025 73.3882 116.268 73.5086 116.633 73.5086C116.876 73.5086 117.119 73.4484 117.301 73.328C117.484 73.2077 117.666 73.0271 117.787 72.8465H119.246C119.003 73.3882 118.638 73.8096 118.152 74.1708C117.666 74.532 117.119 74.6523 116.511 74.6523C115.843 74.6523 115.296 74.4718 114.871 74.0504C114.446 73.629 114.263 73.0873 114.263 72.4251C114.263 72.2445 114.263 72.0037 114.324 71.8232C114.446 71.2814 114.628 70.7396 114.932 70.3183C115.236 69.8969 115.6 69.5357 116.025 69.3551C116.451 69.1143 116.937 68.994 117.484 68.994C118.03 68.994 118.577 69.1745 118.942 69.5959ZM118.213 71.161C118.213 70.86 118.091 70.6192 117.909 70.4387C117.727 70.2581 117.484 70.1979 117.119 70.1979C116.755 70.1979 116.511 70.3183 116.208 70.559C115.965 70.7998 115.782 71.1008 115.661 71.462H118.152C118.213 71.2814 118.213 71.2212 118.213 71.161Z" fill="white"/>
<path d="M127.63 67.9706C128.056 68.2114 128.42 68.5124 128.663 68.9337C128.906 69.3551 129.028 69.8367 129.028 70.3784C129.028 70.6192 129.028 70.86 128.967 71.1008C128.845 71.8231 128.602 72.4251 128.238 72.9067C127.873 73.4484 127.387 73.8096 126.78 74.1106C126.172 74.4115 125.565 74.5319 124.835 74.5319H122.527L123.681 67.6094H125.99C126.658 67.6696 127.205 67.79 127.63 67.9706ZM126.719 72.8465C127.144 72.4251 127.448 71.8833 127.57 71.161C127.63 70.9202 127.63 70.7396 127.63 70.6192C127.63 70.0775 127.448 69.6561 127.144 69.3551C126.84 69.0541 126.354 68.8735 125.747 68.8735H124.835L124.046 73.5086H124.957C125.686 73.4484 126.294 73.2678 126.719 72.8465Z" fill="white"/>
<path d="M134.192 69.5959C134.557 69.9571 134.8 70.4988 134.8 71.161C134.8 71.4018 134.8 71.5824 134.739 71.7028C134.678 71.8833 134.678 72.0639 134.617 72.2445H130.79C130.79 72.3047 130.79 72.3649 130.79 72.4251C130.79 72.7863 130.911 73.0271 131.093 73.2076C131.276 73.3882 131.519 73.5086 131.883 73.5086C132.126 73.5086 132.369 73.4484 132.552 73.328C132.734 73.2077 132.916 73.0271 133.038 72.8465H134.496C134.253 73.3882 133.888 73.8096 133.402 74.1708C132.916 74.532 132.369 74.6523 131.762 74.6523C131.093 74.6523 130.547 74.4718 130.121 74.0504C129.696 73.629 129.514 73.0873 129.514 72.4251C129.514 72.2445 129.514 72.0037 129.574 71.8232C129.696 71.2814 129.878 70.7396 130.182 70.3183C130.486 69.8969 130.85 69.5357 131.276 69.3551C131.701 69.1143 132.187 68.994 132.734 68.994C133.281 68.994 133.828 69.1745 134.192 69.5959ZM133.463 71.161C133.463 70.86 133.341 70.6192 133.159 70.4387C132.977 70.2581 132.734 70.1979 132.369 70.1979C132.005 70.1979 131.762 70.3183 131.458 70.559C131.215 70.7998 131.033 71.1008 130.911 71.462H133.402C133.463 71.2814 133.463 71.2212 133.463 71.161Z" fill="white"/>
<path d="M137.655 73.3281L139.721 69.1144H141.179L138.324 74.5922H136.683L135.65 69.1144H137.109L137.655 73.3281Z" fill="white"/>
<path d="M145.797 69.5959C146.162 69.9571 146.405 70.4988 146.405 71.161C146.405 71.4018 146.405 71.5824 146.344 71.7028C146.283 71.8833 146.283 72.0639 146.222 72.2445H142.395C142.395 72.3047 142.395 72.3649 142.395 72.4251C142.395 72.7863 142.516 73.0271 142.698 73.2076C142.881 73.3882 143.124 73.5086 143.488 73.5086C143.731 73.5086 143.974 73.4484 144.157 73.328C144.339 73.2077 144.521 73.0271 144.643 72.8465H146.101C145.858 73.3882 145.493 73.8096 145.007 74.1708C144.521 74.532 143.974 74.6523 143.367 74.6523C142.698 74.6523 142.152 74.4718 141.726 74.0504C141.301 73.629 141.119 73.0873 141.119 72.4251C141.119 72.2445 141.119 72.0037 141.179 71.8232C141.301 71.2814 141.483 70.7396 141.787 70.3183C142.091 69.8969 142.455 69.5357 142.881 69.3551C143.306 69.1143 143.792 68.994 144.339 68.994C144.886 68.994 145.372 69.1745 145.797 69.5959ZM145.007 71.161C145.007 70.86 144.886 70.6192 144.703 70.4387C144.521 70.2581 144.278 70.1979 143.914 70.1979C143.549 70.1979 143.306 70.3183 143.002 70.559C142.759 70.7998 142.577 71.1008 142.455 71.462H144.946C145.007 71.2814 145.007 71.2212 145.007 71.161Z" fill="white"/>
<path d="M149.382 67.2483L148.106 74.5922H146.769L148.045 67.2483H149.382Z" fill="white"/>
<path d="M150.597 74.4116C150.232 74.231 149.989 73.93 149.807 73.5688C149.625 73.2076 149.503 72.7863 149.503 72.3649C149.503 71.7629 149.625 71.161 149.928 70.6794C150.232 70.1377 150.597 69.7765 151.083 69.4755C151.569 69.1745 152.116 69.0541 152.723 69.0541C153.149 69.0541 153.574 69.1745 153.939 69.3551C154.303 69.5357 154.546 69.8367 154.728 70.1979C154.911 70.559 155.032 70.9804 155.032 71.4018C155.032 72.0037 154.911 72.6057 154.607 73.0872C154.303 73.5688 153.939 73.9902 153.452 74.2912C152.966 74.5921 152.42 74.7125 151.812 74.7125C151.387 74.6523 150.961 74.5921 150.597 74.4116ZM152.845 73.2076C153.088 73.0271 153.331 72.7863 153.452 72.4251C153.574 72.0639 153.695 71.7629 153.695 71.4018C153.695 70.9804 153.574 70.6794 153.392 70.4988C153.149 70.2581 152.906 70.1979 152.602 70.1979C152.298 70.1979 151.994 70.3182 151.751 70.4988C151.508 70.6794 151.326 70.9202 151.144 71.2814C151.022 71.5824 150.961 71.9435 150.961 72.3047C150.961 72.6659 151.083 72.9669 151.265 73.2076C151.447 73.4484 151.751 73.5086 152.055 73.5086C152.298 73.5086 152.602 73.3882 152.845 73.2076Z" fill="white"/>
<path d="M158.495 69.2347C158.799 69.0542 159.164 68.994 159.589 68.994C159.954 68.994 160.318 69.0542 160.622 69.2347C160.926 69.4153 161.169 69.6561 161.351 70.0173C161.533 70.3785 161.594 70.7396 161.594 71.161C161.594 71.3416 161.594 71.5824 161.533 71.8232C161.412 72.3649 161.229 72.9067 160.986 73.328C160.743 73.7494 160.379 74.1106 159.954 74.3514C159.528 74.5922 159.103 74.7125 158.678 74.7125C158.313 74.7125 157.948 74.6523 157.705 74.4718C157.462 74.2912 157.219 74.1106 157.098 73.8698L156.551 77.3009H155.214L156.612 69.1745H157.948L157.827 69.9571C157.888 69.6561 158.131 69.4153 158.495 69.2347ZM160.136 71.462C160.136 71.1008 160.014 70.7396 159.832 70.559C159.589 70.3183 159.346 70.2581 158.981 70.2581C158.738 70.2581 158.495 70.3183 158.252 70.4387C158.009 70.559 157.827 70.7396 157.645 70.9804C157.462 71.2212 157.341 71.5222 157.28 71.8232C157.28 72.0037 157.219 72.1241 157.219 72.1843C157.219 72.5455 157.341 72.9067 157.523 73.0873C157.766 73.328 158.009 73.3882 158.374 73.3882C158.617 73.3882 158.86 73.328 159.103 73.2077C159.346 73.0873 159.528 72.9067 159.71 72.6659C159.893 72.4251 160.014 72.1241 160.075 71.763C160.136 71.7028 160.136 71.5824 160.136 71.462Z" fill="white"/>
<path d="M170.829 69.4755C171.133 69.7765 171.315 70.1979 171.315 70.7998C171.315 71.0406 171.315 71.2212 171.255 71.3416L170.708 74.5922H169.371L169.857 71.5824C169.857 71.462 169.857 71.3416 169.857 71.2212C169.857 70.9202 169.796 70.6795 169.614 70.4989C169.432 70.3183 169.189 70.2581 168.885 70.2581C168.521 70.2581 168.217 70.3785 167.974 70.6193C167.731 70.86 167.548 71.161 167.488 71.5824L166.941 74.6524H165.604L166.09 71.6426C166.09 71.5222 166.09 71.4018 166.09 71.2814C166.09 70.9804 166.029 70.7396 165.847 70.5591C165.665 70.3785 165.422 70.3183 165.118 70.3183C164.754 70.3183 164.45 70.4387 164.207 70.6193C163.964 70.86 163.781 71.161 163.721 71.5222L163.174 74.6524H161.837L162.749 69.1746H164.085L163.964 69.8367C164.146 69.5959 164.45 69.4153 164.693 69.295C164.997 69.1746 165.3 69.1144 165.604 69.1144C166.029 69.1144 166.394 69.2348 166.637 69.4153C166.941 69.5959 167.123 69.8367 167.245 70.1979C167.488 69.8969 167.731 69.5959 168.095 69.4153C168.46 69.2348 168.824 69.1144 169.189 69.1144C170.04 68.994 170.465 69.1746 170.829 69.4755Z" fill="white"/>
<path d="M176.784 69.5959C177.148 69.9571 177.391 70.4988 177.391 71.161C177.391 71.4018 177.391 71.5824 177.331 71.7028C177.27 71.8833 177.27 72.0639 177.209 72.2445H173.381C173.381 72.3047 173.381 72.3649 173.381 72.4251C173.381 72.7863 173.503 73.0271 173.685 73.2076C173.867 73.3882 174.11 73.5086 174.475 73.5086C174.718 73.5086 174.961 73.4484 175.143 73.328C175.326 73.2077 175.508 73.0271 175.629 72.8465H177.088C176.845 73.3882 176.48 73.8096 175.994 74.1708C175.508 74.532 174.961 74.6523 174.354 74.6523C173.685 74.6523 173.138 74.4718 172.713 74.0504C172.288 73.629 172.105 73.0873 172.105 72.4251C172.105 72.2445 172.105 72.0037 172.166 71.8232C172.288 71.2814 172.47 70.7396 172.774 70.3183C173.078 69.8969 173.442 69.5357 173.867 69.3551C174.293 69.1143 174.779 68.994 175.326 68.994C175.872 68.994 176.419 69.1745 176.784 69.5959ZM176.055 71.161C176.055 70.86 175.933 70.6192 175.751 70.4387C175.569 70.2581 175.326 70.1979 174.961 70.1979C174.597 70.1979 174.354 70.3183 174.05 70.559C173.807 70.7998 173.624 71.1008 173.503 71.462H175.994C176.055 71.2814 176.055 71.2212 176.055 71.161Z" fill="white"/>
<path d="M182.981 69.4755C183.285 69.7765 183.467 70.1979 183.467 70.7998C183.467 71.0406 183.467 71.2212 183.406 71.4018L182.86 74.6523H181.523L182.009 71.6425C182.009 71.5222 182.009 71.4018 182.009 71.2814C182.009 70.9804 181.948 70.6794 181.766 70.4988C181.584 70.3182 181.341 70.258 181.037 70.258C180.672 70.258 180.368 70.3784 180.125 70.6192C179.882 70.86 179.7 71.161 179.639 71.5824L179.093 74.7125H177.756L178.667 69.2347H180.004L179.882 69.8969C180.125 69.6561 180.368 69.4755 180.672 69.3551C180.976 69.2347 181.28 69.1745 181.584 69.1745C182.252 68.9939 182.677 69.1745 182.981 69.4755Z" fill="white"/>
<path d="M185.958 72.9067C185.958 72.9669 185.958 73.0271 185.958 73.0873C185.958 73.2077 186.019 73.3281 186.08 73.3883C186.14 73.4485 186.262 73.4485 186.444 73.4485H187.052L186.87 74.5922H186.019C185.047 74.5922 184.622 74.1708 184.622 73.3281C184.622 73.1475 184.622 73.0271 184.682 72.8465L185.108 70.1979H184.5L184.682 69.0542H185.29L185.533 67.6697H186.87L186.627 69.0542H187.781L187.599 70.1979H186.444L185.958 72.9067Z" fill="white"/>
<path d="M191.366 69.2949C191.73 68.7532 192.216 68.3318 192.763 68.0308C193.31 67.7298 193.917 67.5493 194.586 67.5493C195.315 67.5493 195.922 67.7298 196.469 68.1512C196.955 68.5726 197.259 69.1143 197.381 69.7765H195.862C195.74 69.4755 195.558 69.2347 195.315 69.0541C195.072 68.8736 194.768 68.8134 194.403 68.8134C194.039 68.8134 193.674 68.9338 193.31 69.1143C193.006 69.2949 192.702 69.5357 192.459 69.8969C192.216 70.2581 192.095 70.6192 192.034 71.1008C191.973 71.3416 191.973 71.462 191.973 71.6426C191.973 72.1843 192.095 72.6057 192.398 72.9067C192.702 73.2076 193.067 73.3882 193.614 73.3882C193.978 73.3882 194.282 73.328 194.586 73.1475C194.89 72.9669 195.133 72.7261 195.376 72.4251H196.895C196.53 73.1475 196.044 73.6892 195.436 74.0504C194.829 74.4718 194.1 74.6523 193.371 74.6523C192.824 74.6523 192.338 74.5319 191.912 74.2912C191.487 74.0504 191.123 73.7494 190.94 73.2678C190.758 72.7863 190.576 72.3649 190.576 71.763C190.576 71.5222 190.576 71.2814 190.636 71.0406C190.758 70.4386 191.001 69.8367 191.366 69.2949Z" fill="white"/>
<path d="M202.545 69.5959C202.91 69.9571 203.153 70.4988 203.153 71.161C203.153 71.4018 203.153 71.5824 203.092 71.7028C203.031 71.8833 203.031 72.0639 202.97 72.2445H199.143C199.143 72.3047 199.143 72.3649 199.143 72.4251C199.143 72.7863 199.264 73.0271 199.446 73.2076C199.629 73.3882 199.872 73.5086 200.236 73.5086C200.479 73.5086 200.722 73.4484 200.905 73.328C201.087 73.2077 201.269 73.0271 201.391 72.8465H202.849C202.606 73.3882 202.241 73.8096 201.755 74.1708C201.269 74.532 200.722 74.6523 200.115 74.6523C199.446 74.6523 198.9 74.4718 198.474 74.0504C198.049 73.629 197.867 73.0873 197.867 72.4251C197.867 72.2445 197.867 72.0037 197.927 71.8232C198.049 71.2814 198.231 70.7396 198.535 70.3183C198.839 69.8969 199.203 69.5357 199.629 69.3551C200.054 69.1143 200.54 68.994 201.087 68.994C201.573 68.994 202.12 69.1745 202.545 69.5959ZM201.755 71.161C201.755 70.86 201.634 70.6192 201.451 70.4387C201.269 70.2581 201.026 70.1979 200.662 70.1979C200.297 70.1979 200.054 70.3183 199.75 70.559C199.507 70.7998 199.325 71.1008 199.203 71.462H201.694C201.755 71.2814 201.755 71.2212 201.755 71.161Z" fill="white"/>
<path d="M208.682 69.4755C208.986 69.7765 209.168 70.1979 209.168 70.7998C209.168 71.0406 209.168 71.2212 209.107 71.4018L208.56 74.6523H207.224L207.71 71.6425C207.71 71.5222 207.71 71.4018 207.71 71.2814C207.71 70.9804 207.649 70.6794 207.467 70.4988C207.284 70.3182 207.041 70.258 206.738 70.258C206.373 70.258 206.069 70.3784 205.826 70.6192C205.583 70.86 205.401 71.161 205.34 71.5824L204.793 74.7125H203.578L204.489 69.2347H205.826L205.705 69.8969C205.948 69.6561 206.191 69.4755 206.495 69.3551C206.798 69.2347 207.102 69.1745 207.406 69.1745C207.953 68.9939 208.378 69.1745 208.682 69.4755Z" fill="white"/>
<path d="M211.659 72.9067C211.659 72.9669 211.659 73.0271 211.659 73.0873C211.659 73.2077 211.72 73.3281 211.78 73.3883C211.841 73.4485 211.963 73.4485 212.145 73.4485H212.753L212.57 74.5922H211.72C210.748 74.5922 210.322 74.1708 210.322 73.3281C210.322 73.1475 210.322 73.0271 210.383 72.8465L210.808 70.1979H210.201L210.383 69.0542H210.991L211.234 67.6697H212.57L212.327 69.0542H213.482L213.299 70.1979H212.145L211.659 72.9067Z" fill="white"/>
<path d="M218.403 69.5959C218.768 69.9571 219.011 70.4988 219.011 71.161C219.011 71.4018 219.011 71.5824 218.95 71.7028C218.889 71.8833 218.889 72.0639 218.828 72.2445H215.001C215.001 72.3047 215.001 72.3649 215.001 72.4251C215.001 72.7863 215.122 73.0271 215.304 73.2076C215.487 73.3882 215.73 73.5086 216.094 73.5086C216.337 73.5086 216.58 73.4484 216.763 73.328C216.945 73.2077 217.127 73.0271 217.249 72.8465H218.707C218.464 73.3882 218.099 73.8096 217.613 74.1708C217.127 74.532 216.58 74.6523 215.973 74.6523C215.304 74.6523 214.757 74.4718 214.332 74.0504C213.907 73.629 213.725 73.0873 213.725 72.4251C213.725 72.2445 213.725 72.0037 213.785 71.8232C213.907 71.2814 214.089 70.7396 214.393 70.3183C214.697 69.8969 215.061 69.5357 215.487 69.3551C215.912 69.1143 216.398 68.994 216.945 68.994C217.431 68.994 217.978 69.1745 218.403 69.5959ZM217.613 71.161C217.613 70.86 217.492 70.6192 217.309 70.4387C217.127 70.2581 216.884 70.1979 216.519 70.1979C216.155 70.1979 215.912 70.3183 215.608 70.559C215.365 70.7998 215.183 71.1008 215.061 71.462H217.552C217.613 71.2814 217.613 71.2212 217.613 71.161Z" fill="white"/>
<path d="M222.291 69.2949C222.595 69.1143 222.899 68.994 223.264 68.994L223.02 70.4387H222.656C222.291 70.4387 221.927 70.4988 221.684 70.6794C221.441 70.86 221.258 71.161 221.137 71.5824L220.651 74.532H219.375L220.286 69.0542H221.623L221.441 70.0173C221.745 69.7163 221.988 69.4755 222.291 69.2949Z" fill="white"/>
<path d="M228.003 0.190369V0.551542H227.092V3.56132H226.666V0.551542H225.755V0.190369H228.003Z" fill="white"/>
<path d="M231.952 0.250549V3.56131H231.527V1.09329L230.433 3.56131H230.129L229.036 1.09329V3.56131H228.61V0.250549H229.096L230.312 3.01955L231.527 0.250549H231.952Z" fill="white"/>
<path d="M40.1386 76.6389C53.0801 75.4951 53.8092 66.9474 53.8092 66.9474C63.1659 74.7126 74.467 69.8368 77.9909 64.7201C82.8516 57.617 79.7529 47.3236 79.7529 47.3236C79.3884 51.7179 77.0796 55.2092 73.0088 57.3161C66.5076 60.687 58.6698 60.0851 52.8978 55.8112C52.594 55.5704 52.2295 55.3296 51.6826 54.9082C49.1915 61.0482 44.0271 63.8774 37.1007 64.6599C29.9919 65.4425 24.5845 63.3356 20.9997 58.7006C19.2377 56.4733 17.901 53.8247 17.1112 51.1761C14.4986 42.4477 14.5593 39.6185 12.1898 30.83C12.129 30.529 11.7037 30.6494 11.7645 30.9504L16.0783 58.219C16.0175 58.219 17.0504 78.6855 40.1386 76.6389Z" fill="white"/>
<path d="M54.5989 24.4492L68.7555 21.1384C68.7555 21.1384 73.4947 19.8141 74.2238 22.5831C74.9529 25.3521 77.8085 37.6922 77.8085 37.6922L75.925 21.3792C75.925 21.3792 75.3782 16.8645 68.9378 18.249L60.6139 20.3559L54.5989 24.4492Z" fill="white"/>
<path d="M58.3051 34.5621L54.9634 45.1565C55.3887 45.3973 55.8748 45.5779 56.4216 45.6982L60.0671 34.1407L58.3051 34.5621Z" fill="white"/>
<path d="M49.2522 36.7893C49.799 39.3777 50.8927 41.7855 52.5939 43.471L55.2673 35.3446L49.2522 36.7893Z" fill="white"/>
<path d="M68.6947 32.0339L60.7961 33.9601L57.1506 45.8789C59.1557 46.24 61.5252 46.0595 64.3809 44.9759C73.4946 41.605 68.6947 32.0339 68.6947 32.0339Z" fill="white"/>
<path d="M31.5714 40.3408L28.5942 49.6712C29.0195 49.9721 29.4449 50.2731 29.9309 50.5139L33.2119 39.9797L31.5714 40.3408Z" fill="white"/>
<path d="M26.4677 47.3838L28.5943 40.8826L24.1589 41.7254C24.5235 43.772 25.3133 45.7585 26.4677 47.3838Z" fill="white"/>
<path d="M34.0019 39.8593L30.6602 50.8149C33.0905 51.8382 36.2499 51.8984 40.1384 50.3935C49.8598 46.7818 45.2421 37.6923 45.2421 37.6923L34.0019 39.8593Z" fill="white"/>
<path d="M36.3107 10.3634L2.52911 30.4086C2.52911 30.4086 2.34684 30.4688 2.40759 30.5892C2.40759 30.7096 2.52911 30.6494 2.52911 30.6494L35.3386 19.9345C35.6423 19.152 36.8575 18.3093 38.498 17.7675C40.5638 17.1053 42.4473 17.2257 42.7511 18.0685C43.0548 18.9112 41.5967 20.1151 39.5309 20.8375C37.8904 21.3792 36.3714 21.3792 35.7031 20.9579L2.71139 31.6727C2.65063 31.6727 2.65063 31.7329 2.71139 31.7329V44.5546L0.827881 48.7683H5.44551L3.31897 44.5546L3.13669 31.7931C8.60493 31.7329 42.8118 31.1911 43.0548 31.4319C43.3586 31.7329 73.9808 7.05267 73.9808 7.05267L36.3107 10.3634Z" fill="white"/>
</svg>
